<svg width="372" height="219" viewBox="0 0 372 219" fill="none" xmlns="http://www.w3.org/2000/svg">
<path d="M264.069 0.470006C242.619 0.320006 222.599 6.38 205.699 16.96L171.779 36.34L177.109 45.99L188.129 65.95L190.439 69.95L227.479 48.84C228.649 48.15 229.829 47.49 231.029 46.88C240.689 41.87 251.649 39.04 263.269 39.04C301.979 39.04 333.369 70.39 333.429 109.09C333.489 147.58 303.109 178.63 264.619 179.35C259.339 179.45 254.179 178.97 249.219 177.96C231.929 174.44 216.949 164.57 206.829 150.88C204.049 147.13 202.409 144.66 197.219 136.52C195.759 134.23 194.369 131.89 193.049 129.51L161.159 71.78L120.709 1.71001L0.869141 217.93C0.869141 217.93 182.089 218.1 181.999 218.04C163.999 206.04 156.519 195.08 147.999 180.04C147.759 179.62 66.5591 180 66.5591 180L120.709 77.56L162.329 149.65L173.099 168.3C177.439 175.82 182.749 182.77 189.099 188.7C204.219 202.81 223.359 212.66 244.619 216.33C250.679 217.38 256.909 217.93 263.269 217.93C266.239 217.93 269.179 217.81 272.089 217.57C327.679 213.12 371.489 166.82 371.999 110.19C372.529 50.36 323.909 0.900006 264.069 0.470006Z" fill="black"/>
</svg>
